<svg id="レイヤー_1" data-name="レイヤー 1" xmlns="http://www.w3.org/2000/svg" viewBox="0 0 200 766"><defs><style>.cls-1{fill:#9ec441;}.cls-2{fill:#61c427;}.cls-3{fill:#ccc;stroke:#fff;stroke-miterlimit:10;stroke-width:5px;}</style></defs><title>竹大</title><path class="cls-1" d="M95.68,64.37l-88,35.06V202.5c0,34.85,184.86,34.76,184.79,0V27.78Z"/><path class="cls-2" d="M7.68,207.46v2.9a8.85,8.85,0,0,1,.5-2.9Z"/><path class="cls-1" d="M100.08,240.26c-51,0-92.4-12.49-92.4-27.9V312.52c0,34.86,184.86,34.77,184.79,0V212.36C192.47,227.77,151.1,240.26,100.08,240.26Z"/><path class="cls-2" d="M192.47,210.36V209h-.12A7.84,7.84,0,0,1,192.47,210.36Z"/><path class="cls-2" d="M7.68,314.49v2.9a8.8,8.8,0,0,1,.5-2.9Z"/><path class="cls-1" d="M100.08,350.29c-51,0-92.4-12.5-92.4-27.9V422.55c0,34.86,184.86,34.76,184.79,0V322.39C192.47,337.79,151.1,350.29,100.08,350.29Z"/><path class="cls-2" d="M192.47,317.39V316h-.12A8,8,0,0,1,192.47,317.39Z"/><path class="cls-2" d="M7.68,422.43v2.9a8.8,8.8,0,0,1,.5-2.9Z"/><path class="cls-1" d="M100.08,460.23c-51,0-92.4-12.49-92.4-27.9V532.49c0,34.86,184.86,34.76,184.79,0V432.33C192.47,447.74,151.1,460.23,100.08,460.23Z"/><path class="cls-2" d="M192.47,425.33V424h-.12A8,8,0,0,1,192.47,425.33Z"/><path class="cls-2" d="M7.68,530.37v2.9a8.8,8.8,0,0,1,.5-2.9Z"/><path class="cls-1" d="M100.08,571.17c-51,0-92.4-12.49-92.4-27.9V735.43c0,34.86,184.86,34.76,184.79,0V543.27C192.47,558.68,151.1,571.17,100.08,571.17Z"/><path class="cls-2" d="M192.47,533.27V531.9h-.12A8,8,0,0,1,192.47,533.27Z"/><ellipse class="cls-3" cx="99.36" cy="66.82" rx="102.08" ry="42.87" transform="translate(-20.15 59.41) rotate(-30.37)"/></svg>