<svg xmlns="http://www.w3.org/2000/svg" viewBox="0 0 1000 200"><defs><style>.cls-1{fill:#c7b9d6;}</style></defs><title>雲</title><g id="レイヤー_2" data-name="レイヤー 2"><path class="cls-1" d="M971.39,104.54H799.51a7.92,7.92,0,0,1,1.62-14.06v0h87c12,0,21.76-9.1,21.76-20.23S900.12,50,888.15,50H663c-12,0-21.75,9.1-21.75,20.23S651.08,90.46,663,90.46h92.54a7.87,7.87,0,0,1,1.75,14.08H746.28c-12,0-21.76,9.1-21.76,20.23S734.31,145,746.28,145H971.39c12,0,21.75-9.1,21.75-20.23S983.35,104.54,971.39,104.54Z"/></g></svg>