<svg xmlns="http://www.w3.org/2000/svg" width="1000" height="200"><defs><style>.cls-1{fill:#c7b9d6;}</style></defs><title>雲</title><g id="レイヤー_2" data-name="レイヤー 2"><path class="cls-1" d="M443.63,108.76H217.47a10.42,10.42,0,0,1,2.14-18.49v0h114.5c15.74,0,28.62-12,28.62-26.62S349.85,37,334.11,37H37.91C22.17,37,9.29,49,9.29,63.62S22.17,90.24,37.91,90.24H159.67A10.36,10.36,0,0,1,162,108.76H147.43c-15.74,0-28.62,12-28.62,26.62S131.69,162,147.43,162h296.2c15.74,0,28.62-12,28.62-26.62S459.37,108.76,443.63,108.76Z"/></g></svg>